<?xml version="1.0" encoding="iso-8859-1"?>
<!-- Generator: Adobe Illustrator 23.0.3, SVG Export Plug-In . SVG Version: 6.00 Build 0)  -->
<svg version="1.0" id="Calque_1" xmlns="http://www.w3.org/2000/svg" xmlns:xlink="http://www.w3.org/1999/xlink" x="0px" y="0px"
	 width="1190.55px" height="841.89px" viewBox="0 0 1190.55 841.89" enable-background="new 0 0 1190.55 841.89"
	 xml:space="preserve">
<polygon fill="none" stroke="#FF0000" stroke-width="1.4173" stroke-miterlimit="10" points="778.98,546.61 778.98,518.26 
	770.47,518.26 770.47,390.7 778.98,390.7 778.98,362.36 594.73,362.36 594.73,353.85 452.99,353.85 452.99,362.36 268.74,362.36 
	268.74,390.7 277.25,390.7 277.25,518.26 268.74,518.26 268.74,546.61 "/>
<polygon fill="none" stroke="#FF0000" stroke-width="1.4173" stroke-miterlimit="10" points="105.05,249.26 100.8,256.62 
	174.45,299.14 178.7,291.78 256.83,340.16 256.83,269.29 265.33,269.29 265.33,85.04 256.83,85.04 256.83,14.38 22.68,14.17 
	22.68,85.04 14.17,85.04 14.17,170.08 22.68,170.08 22.68,198.43 "/>
<polygon fill="none" stroke="#FF0000" stroke-width="1.4173" stroke-miterlimit="10" points="174.45,316.47 178.7,309.1 
	105.05,266.58 100.8,273.95 22.68,225.57 22.68,296.43 14.17,296.43 14.17,480.68 22.68,480.68 22.68,551.35 256.83,551.55 
	256.83,523.2 265.33,523.2 265.33,395.65 256.83,395.65 256.83,367.3 "/>
<g>
	<g>
		<g>
			<g>
				<g>
					<g>
						
							<rect x="455.6" y="595.55" fill="none" stroke="#FF0000" stroke-width="1.4173" stroke-miterlimit="10" width="201.83" height="68.6"/>
						<g>
							<path fill="none" stroke="#FF0000" stroke-width="1.4173" stroke-miterlimit="10" d="M667.64,584.78
								c0.07,4.67-8.57,4.67-8.5,0C659.05,579.26,667.72,579.26,667.64,584.78z"/>
							<path fill="none" stroke="#FF0000" stroke-width="1.4173" stroke-miterlimit="10" d="M667.64,672.94
								c0.08,5.52-8.59,6.37-8.5,0.85C659.05,668.27,667.72,667.42,667.64,672.94z"/>
							<path fill="none" stroke="#FF0000" stroke-width="1.4173" stroke-miterlimit="10" d="M453.9,584.78
								c0.08,5.52-8.59,5.52-8.5,0C445.31,578.41,454,578.41,453.9,584.78z"/>
							<path fill="none" stroke="#FF0000" stroke-width="1.4173" stroke-miterlimit="10" d="M453.9,672.94
								c0.08,5.52-8.59,6.37-8.5,0.85C445.32,668.27,453.99,667.42,453.9,672.94z"/>
						</g>
					</g>
					
						<rect x="508.27" y="699.16" fill="none" stroke="#FF0000" stroke-width="1.4173" stroke-miterlimit="10" width="17.01" height="17.01"/>
					
						<rect x="588.62" y="699.16" fill="none" stroke="#FF0000" stroke-width="1.4173" stroke-miterlimit="10" width="17.01" height="17.01"/>
					
						<rect x="410.44" y="602.07" fill="none" stroke="#FF0000" stroke-width="1.4173" stroke-miterlimit="10" width="17.01" height="17.01"/>
					
						<rect x="410.44" y="645.16" fill="none" stroke="#FF0000" stroke-width="1.4173" stroke-miterlimit="10" width="17.01" height="17.01"/>
					<g>
						<path d="M499.31,687.7c-0.25,0.49-0.49,1.04-1.14,1.04c-0.7,0-0.88-0.4-1.14-0.96l-2.39-5.28c-0.36-0.78-0.47-0.92-0.94-1
							c-0.24-0.04-0.36-0.22-0.36-0.47c0-0.92,1.91-0.97,2.52-0.97c2.52,0,2.42,0.6,2.42,0.78c0,0.46-0.58,0.48-0.58,0.8
							c0,0.25,0.47,1.19,0.76,1.81c0.11,0.2,0.24,0.67,0.5,0.68c0.4,0.02,0.6-0.65,0.74-0.9c0.14-0.29,0.7-1.37,0.7-1.66
							c0-0.43-0.61-0.31-0.61-0.79c0-0.74,1.51-0.73,1.99-0.73c1.51,0,1.76,0.28,1.76,0.7c0,0.32-0.24,0.48-0.53,0.52
							c-0.52,0.06-0.56,0.02-1.02,0.95L499.31,687.7z"/>
						<path d="M508.57,685.74c0,2.11,0.72,0.96,0.72,1.61c0,0.68-0.94,1.43-1.81,1.43c-0.95,0-0.97-0.61-1.27-0.61
							c-0.14,0-0.3,0.16-0.56,0.3c-0.26,0.16-0.62,0.31-1.18,0.31c-1,0-1.99-0.53-1.99-1.71c0-0.85,0.82-1.91,2.93-1.91
							c0.37,0,0.54,0.02,0.54-0.41c0-0.4-0.01-1.22-0.56-1.22c-0.72,0-0.79,1.29-1.86,1.29c-0.38,0-0.67-0.28-0.67-0.66
							c0-1.02,2.03-1.68,3.17-1.68c0.68,0,2.55,0.26,2.55,2.06V685.74z M504.97,686.8c0,0.31,0.17,0.65,0.52,0.65
							c0.46,0,0.49-0.49,0.49-0.85c0-0.26,0.01-0.56-0.32-0.56C505.25,686.03,504.97,686.41,504.97,686.8z"/>
						<path d="M513.22,686.46c0,0.22-0.01,0.61,0.05,0.8c0.13,0.43,0.67,0.23,0.67,0.73c0,0.8-1.46,0.74-1.98,0.74
							c-0.54,0-2.22,0.06-2.22-0.79c0-0.42,0.52-0.26,0.66-0.71c0.16-0.49,0.16-1.99,0.16-2.58c0-0.47,0.02-1.37-0.08-1.91
							c-0.18-0.89-0.89-0.58-0.89-1.26c0-1.04,3.12-1.29,3.29-1.29c0.41,0,0.5,0.26,0.5,0.62c0,0.28-0.16,1.6-0.16,3.31V686.46z"/>
						<path d="M517.73,686.39c0,1.42,0.71,0.9,0.71,1.54c0,0.82-1.52,0.82-2.06,0.82c-2.06,0-2.15-0.47-2.15-0.76
							c0-0.43,0.49-0.46,0.64-0.83c0.16-0.42,0.18-2.16,0.05-2.6c-0.11-0.42-0.72-0.29-0.72-0.83c0-0.85,3.05-1.21,3.17-1.21
							c0.36,0,0.37,0.28,0.37,0.53V686.39z M515.36,682.13c-0.5,0-1.04-0.23-1.04-0.82c0-0.79,1.58-1.12,2.19-1.12
							c0.48,0,1.16,0.16,1.16,0.76C517.67,681.89,516.04,682.13,515.36,682.13z"/>
						<path d="M526.01,686.58c0,0.84,0.64,0.56,0.64,1.19c0,0.91-2.63,0.97-2.76,0.97c-0.61,0-0.18-0.66-0.58-0.66
							c-0.11,0-0.29,0.17-0.56,0.35c-0.28,0.17-0.65,0.35-1.18,0.35c-1.57,0-2.79-1.67-2.79-3.14c0-1.59,1.29-3.15,2.95-3.15
							c0.83,0,1.3,0.36,1.43,0.36c0.18,0,0.19-0.4,0.19-0.53c0-0.74-0.88-0.35-0.88-1c0-0.89,3.06-1.12,3.09-1.12
							c0.36,0,0.44,0.25,0.44,0.65V686.58z M522.66,683.79c-0.8,0-0.95,1.38-0.95,1.94c0,0.56,0.14,1.55,0.89,1.55
							c0.8,0,0.76-1.48,0.76-2C523.36,684.81,523.36,683.79,522.66,683.79z"/>
						<path d="M529.93,685.85c-0.13,0-0.32-0.04-0.32,0.17c0,0.6,0.78,1.1,1.34,1.1c0.9,0,1.34-0.54,1.6-0.54s0.47,0.37,0.47,0.6
							c0,0.92-1.69,1.59-2.77,1.59c-2.16,0-3.27-1.56-3.27-3.11c0-1.85,1.57-3.19,3.37-3.19c2.04,0,2.94,1.57,2.94,2.47
							c0,0.79-0.36,0.9-0.74,0.9H529.93z M530.98,684.34c0-0.43-0.26-0.77-0.71-0.77c-0.4,0-0.72,0.41-0.72,0.79
							c0,0.43,0.41,0.34,0.72,0.34C530.59,684.7,530.98,684.77,530.98,684.34z"/>
						<path d="M534.39,684.97c0-1.18-0.74-0.52-0.74-1.25c0-0.95,2.81-1.21,2.91-1.21c0.46,0,0.47,0.12,0.52,0.53
							c0.01,0.14,0,0.42,0.2,0.42c0.29,0,0.47-0.95,1.5-0.95c0.8,0,1.33,0.6,1.33,1.39c0,0.8-0.68,1.44-1.48,1.44
							c-0.78,0-1-0.68-1.31-0.68c-0.34,0-0.28,0.8-0.28,1.02c0,0.36,0.04,0.86,0.1,1.32c0.07,0.53,0.98,0.2,0.98,0.92
							c0,0.76-1.06,0.82-2.37,0.82c-0.55,0-2.18,0.02-2.18-0.8c0-0.5,0.55-0.5,0.68-0.92c0.1-0.3,0.13-0.98,0.13-1.32V684.97z"/>
					</g>
					<g>
						<path d="M575.6,682.7c0-1.86-0.91-1.09-0.91-1.83c0-0.66,0.94-0.74,1.42-0.74c0.25,0,0.49,0.02,0.74,0.04
							c0.24,0.02,0.49,0.05,0.73,0.05c0.38,0,0.77-0.02,1.16-0.05c0.38-0.01,0.78-0.04,1.16-0.04c1.35,0,2.93,0.6,2.93,2.19
							c0,0.72-0.35,1.42-1.02,1.74c-0.11,0.06-0.19,0.1-0.19,0.24c0,0.18,0.16,0.23,0.3,0.29c0.84,0.31,1.21,0.86,1.38,2.16
							c0.14,1.12,0.92,0.44,0.92,1.18c0,0.46-0.55,0.94-1.91,0.94c-1.92,0-2.16-1.1-2.53-2.69c-0.13-0.55-0.34-1.09-1-1.09
							c-0.26,0-0.36,0.04-0.36,0.79c0,0.35,0.02,0.83,0.08,1.16c0.1,0.55,0.71,0.38,0.71,0.96c0,0.43-0.3,0.76-2.24,0.76
							c-0.58,0-2.28,0-2.28-0.88c0-0.62,0.9-0.19,0.9-1.75V682.7z M578.38,683.22c-0.02,0.31-0.08,0.58,0.31,0.58
							c0.78,0,1.03-0.43,1.03-1.17c0-0.59-0.14-1.19-0.84-1.19c-0.44,0-0.43,0.28-0.46,0.65L578.38,683.22z"/>
						<path d="M587.48,685.85c-0.13,0-0.32-0.04-0.32,0.17c0,0.6,0.78,1.1,1.34,1.1c0.9,0,1.34-0.54,1.6-0.54s0.47,0.37,0.47,0.6
							c0,0.92-1.69,1.59-2.77,1.59c-2.16,0-3.27-1.56-3.27-3.11c0-1.85,1.57-3.19,3.37-3.19c2.04,0,2.94,1.57,2.94,2.47
							c0,0.79-0.36,0.9-0.74,0.9H587.48z M588.52,684.34c0-0.43-0.26-0.77-0.71-0.77c-0.4,0-0.72,0.41-0.72,0.79
							c0,0.43,0.41,0.34,0.72,0.34C588.14,684.7,588.52,684.77,588.52,684.34z"/>
						<path d="M594.88,686.02c0,0.8,0.34,1,0.66,1c0.37,0,0.59-0.28,0.8-0.28c0.24,0,0.41,0.34,0.41,0.55
							c0,0.79-1.37,1.49-2.58,1.49c-0.61,0-2.15-0.26-2.15-2.17v-2.47c0-0.22,0-0.3-0.06-0.34c-0.06-0.04-0.19-0.01-0.47-0.01
							c-0.31,0-0.47,0.01-0.53-0.05c-0.08-0.08-0.06-0.2-0.06-0.48c0-0.17-0.04-0.3,0.11-0.4l2.73-1.74
							c0.28-0.17,0.26-0.13,0.62-0.13c0.48,0,0.5-0.05,0.5,0.5c0,0.37-0.02,0.74,0.04,0.89c0.04,0.1,0.12,0.1,0.43,0.1h0.84
							c0.52,0,0.52,0.04,0.52,0.58c0,0.68-0.08,0.73-0.55,0.73h-0.83c-0.42,0-0.44,0.01-0.44,0.44V686.02z"/>
						<path d="M597.06,685.84c0-2.15,1.88-3.36,3.86-3.36c2.1,0,3.3,1.64,3.3,3.13c0,1.97-2.11,3.17-3.87,3.17
							C598.57,688.78,597.06,687.73,597.06,685.84z M600.4,683.89c-0.4,0-0.61,0.37-0.59,0.72c0.05,0.76,0.26,2.6,1.09,2.65
							c0.46,0.02,0.55-0.36,0.55-0.74C601.46,685.98,601.22,683.89,600.4,683.89z"/>
						<path d="M608.05,686.02c0,0.48,0.04,1.22,0.68,1.22c0.86,0,0.74-1.13,0.74-1.7c0-0.4,0.01-0.91-0.05-1.29
							c-0.1-0.6-0.68-0.4-0.68-0.9c0-0.71,2.41-0.83,2.87-0.83c0.43,0,0.61,0.25,0.61,0.67c0,0.38-0.02,0.76-0.02,1.14v2.41
							c0,0.72,0.66,0.38,0.66,0.96c0,0.82-2.12,1.04-2.78,1.04c-0.92,0-0.31-0.72-0.79-0.72c-0.13,0-0.32,0.18-0.61,0.36
							c-0.29,0.18-0.67,0.36-1.2,0.36c-2.28,0-2.09-1.8-2.09-3.6c0-1.83-0.83-1.03-0.83-1.82c0-0.77,3.02-0.8,3.12-0.8
							c0.34,0,0.37,0.16,0.37,0.46V686.02z"/>
						<path d="M613.92,684.97c0-1.18-0.74-0.52-0.74-1.25c0-0.95,2.81-1.21,2.91-1.21c0.46,0,0.47,0.12,0.52,0.53
							c0.01,0.14,0,0.42,0.2,0.42c0.29,0,0.47-0.95,1.5-0.95c0.8,0,1.33,0.6,1.33,1.39c0,0.8-0.68,1.44-1.48,1.44
							c-0.78,0-1-0.68-1.31-0.68c-0.34,0-0.28,0.8-0.28,1.02c0,0.36,0.04,0.86,0.1,1.32c0.07,0.53,0.98,0.2,0.98,0.92
							c0,0.76-1.06,0.82-2.37,0.82c-0.55,0-2.18,0.02-2.18-0.8c0-0.5,0.55-0.5,0.68-0.92c0.1-0.3,0.13-0.98,0.13-1.32V684.97z"/>
					</g>
					<g>
						<path d="M390.9,615.4c-0.52,1.05-0.46,1.36-1.12,1.36c-0.37,0-1.27-0.06-1.27-0.55c0-0.34,0.75-1.43,1.57-3.09l3.68-7.54
							c0.52-1.05,0.46-1.36,1.12-1.36c0.37,0,1.27,0.06,1.27,0.55c0,0.34-0.75,1.43-1.57,3.09L390.9,615.4z"/>
						<path d="M402.41,611.65c-0.41,0-0.61-0.01-0.68,0.06c-0.09,0.09-0.07,0.28-0.07,0.69v1c0,0.66,0.07,0.96-0.86,0.96
							c-0.93,0-0.86-0.3-0.86-0.96v-1c0-0.41,0.03-0.62-0.06-0.69c-0.09-0.07-0.28-0.06-0.69-0.06h-1c-0.66,0-0.96,0.07-0.96-0.86
							c0-0.93,0.3-0.86,0.96-0.86h1c0.41,0,0.61,0.01,0.69-0.07c0.07-0.07,0.06-0.27,0.06-0.68v-1c0-0.66-0.07-0.96,0.86-0.96
							c0.93,0,0.86,0.3,0.86,0.96v1c0,0.41,0,0.59,0.07,0.68c0.07,0.09,0.27,0.07,0.68,0.07h1c0.66,0,0.96-0.07,0.96,0.86
							c0,0.93-0.3,0.86-0.96,0.86H402.41z"/>
					</g>
					<g>
						<path d="M390.85,658.47c-0.51,1.04-0.45,1.35-1.1,1.35c-0.36,0-1.25-0.06-1.25-0.54c0-0.34,0.74-1.43,1.54-3.07l3.61-7.51
							c0.51-1.04,0.45-1.35,1.1-1.35c0.36,0,1.25,0.06,1.25,0.54c0,0.34-0.74,1.43-1.54,3.07L390.85,658.47z"/>
						<path d="M403.53,655.18c-0.35,0-0.71-0.12-1.06-0.12c-1.26,0-1.35,0.06-1.48,0.06c-0.23,0-0.44-0.18-0.44-0.44
							c0-0.37,0.45-1.56,0.58-1.82c0.19-0.37,0.36-0.53,0.78-0.53c0.35,0,0.71,0.12,1.06,0.12c1.26,0,1.35-0.06,1.48-0.06
							c0.23,0,0.43,0.18,0.43,0.44c0,0.37-0.45,1.56-0.58,1.82C404.12,655.02,403.95,655.18,403.53,655.18z"/>
					</g>
					<g>
						<path d="M377.21,610.26h7.8l-2.05-2.05h1.63l2.88,2.62l-2.88,2.71h-1.63l2.05-2.06h-7.8V610.26z"/>
					</g>
					<g>
						<path d="M377.21,652.42h7.77l-2.04-2.04h1.62l2.87,2.61l-2.87,2.7h-1.62l2.04-2.05h-7.77V652.42z"/>
					</g>
				</g>
			</g>
		</g>
		<polygon fill="none" stroke="#FF0000" stroke-width="1.4173" stroke-miterlimit="10" points="778.98,835.93 778.98,736.72 
			770.47,736.72 770.47,651.68 778.98,651.68 778.98,552.46 594.73,552.46 594.73,560.97 452.99,560.97 452.99,552.46 
			268.74,552.46 268.74,651.68 277.25,651.68 277.25,736.72 268.74,736.72 268.74,835.93 452.99,835.93 452.99,827.43 
			594.73,827.43 594.73,835.93 		"/>
	</g>
	<g>
		<path fill-rule="evenodd" clip-rule="evenodd" d="M384.78,754.52c4.36,0,8.73,0,13.09,0c0.98,0,1.94,0.07,2.87,0.42
			c1.76,0.67,2.95,1.83,3.39,3.72c0.22,0.95,0.32,1.9,0.32,2.88c-0.01,7.69,0.02,15.39-0.03,23.08c-0.01,1.2-0.21,2.42-1.03,3.42
			c-0.8,0.97-1.73,1.71-2.96,2.07c-0.94,0.28-1.89,0.31-2.84,0.31c-8.69,0-17.39,0.03-26.08-0.03c-1.57-0.01-3.08-0.46-4.25-1.71
			c-0.7-0.74-1.27-1.52-1.46-2.51c-0.14-0.75-0.23-1.52-0.23-2.28c-0.02-7.59-0.03-15.18,0.01-22.76c0.01-1.09,0.14-2.26,0.58-3.23
			c0.73-1.63,1.96-2.89,3.87-3.16c0.9-0.13,1.82-0.21,2.74-0.22C376.76,754.5,380.77,754.52,384.78,754.52z M398.48,759.84
			c-0.21,0-0.33,0-0.45,0c-8.64,0-17.28,0-25.92-0.01c-0.54,0-0.6,0.22-0.6,0.67c0.01,7.37,0,14.75,0.02,22.12
			c0,0.61,0.1,1.22,0.21,1.82c0.11,0.58,0.63,0.74,1.07,0.37c0.11-0.1,0.23-0.21,0.37-0.26c0.6-0.22,1.2-0.48,1.83-0.63
			c1.96-0.47,3.71-1.32,5.28-2.61c0.99-0.81,1.94-1.62,2.62-2.72c0.25-0.42,0.6-0.78,0.91-1.16c0.55-0.65,1.79-0.67,2.32-0.02
			c0.52,0.64,0.97,1.34,1.53,1.93c0.77,0.8,1.59,1.55,2.45,2.24c0.55,0.44,1.19,0.76,1.83,1.08c0.55,0.28,1.14,0.49,1.73,0.71
			c1.31,0.47,2.62,0.93,3.93,1.39c0.23,0.08,0.48,0.12,0.72,0.18c0.05-0.21,0.15-0.43,0.15-0.64c0.01-7.96,0.01-15.93,0.01-23.89
			C398.48,760.25,398.48,760.08,398.48,759.84z"/>
		<path fill-rule="evenodd" clip-rule="evenodd" d="M444.65,764.51c0-1.66,0-3.29,0-4.96c-7.5,0-14.95,0-22.44,0
			c0,3.23,0,6.44,0,9.72c0.22,0,0.43,0,0.64,0c6.34,0,12.69-0.02,19.03,0.01c1.7,0.01,3.41,0.12,4.99,0.85
			c1,0.47,1.67,1.28,2.02,2.32c0.38,1.13,0.65,2.29,0.66,3.5c0.02,2.2,0.11,4.41,0.09,6.61c-0.02,1.6-0.21,3.18-0.75,4.7
			c-0.58,1.6-1.84,2.35-3.4,2.72c-1.35,0.32-2.73,0.33-4.11,0.32c-6.27-0.01-12.54,0.02-18.81-0.02c-1.22-0.01-2.44-0.21-3.56-0.77
			c-1.32-0.66-2.19-1.68-2.45-3.14c-0.2-1.07-0.31-2.15-0.43-3.23c-0.08-0.75-0.11-1.51-0.16-2.31c1.69-0.45,3.32-0.88,5.02-1.32
			c0.01,0.2,0.03,0.39,0.03,0.57c0,1.48,0,2.96,0,4.44c0,0.78,0,0.78,0.76,0.78c1.76,0,3.53,0,5.29,0c5.67,0,11.33,0,17,0
			c0.21,0,0.42,0,0.67,0c0-3.57,0-7.11,0-10.72c-0.2,0-0.41,0-0.62,0c-6.59,0-13.18,0-19.78,0c-1.51,0-2.98-0.2-4.35-0.87
			c-1.13-0.55-1.67-1.58-2.06-2.72c-0.71-2.09-0.67-4.24-0.64-6.4c0.02-1.16-0.1-2.33,0.03-3.47c0.18-1.65,0.45-3.3,1.44-4.71
			c0.66-0.94,1.68-1.36,2.75-1.56c0.94-0.18,1.91-0.32,2.87-0.33c6.13-0.03,12.26-0.03,18.39,0c1.47,0.01,2.9,0.32,4.17,1.07
			c1.15,0.68,1.64,1.84,1.97,3.06c0.36,1.38,0.36,2.8,0.32,4.21c0,0.13-0.1,0.34-0.2,0.37c-1.39,0.45-2.8,0.87-4.2,1.3
			C444.8,764.54,444.76,764.52,444.65,764.51z"/>
		<path fill-rule="evenodd" clip-rule="evenodd" d="M326.63,759.52c0,3.25,0,6.42,0,9.65c2.56,0,5.11,0,7.65,0c2.55,0,5.09,0,7.68,0
			c0,1.63,0,3.23,0,4.89c-5.1,0-10.19,0-15.31,0c0,3.76,0,7.47,0,11.24c8.48,0,16.97,0,25.48,0c0,1.73,0,3.39,0,5.1
			c-0.18,0.01-0.35,0.03-0.52,0.03c-9.99,0-19.99,0-29.98,0.01c-0.5,0-0.67-0.12-0.67-0.65c0.01-11.56,0.01-23.12,0.01-34.69
			c0-0.66,0.02-0.68,0.69-0.68c9.87,0,19.74,0,29.61-0.01c0.53,0,0.71,0.16,0.69,0.7c-0.04,1.3-0.02,2.6-0.01,3.9
			c0,0.37-0.15,0.51-0.49,0.51c-0.14,0-0.29,0-0.43,0c-7.91,0-15.82,0-23.73,0C327.09,759.52,326.88,759.52,326.63,759.52z"/>
		<path fill-rule="evenodd" clip-rule="evenodd" d="M376.13,745.01c-1.12-0.66-2.32-1.34-3.49-2.06c-1.48-0.91-2.94-1.86-4.42-2.78
			c-0.8-0.49-1.64-0.92-2.44-1.4c-0.92-0.55-1.82-1.14-2.74-1.7c-0.99-0.6-1.98-1.2-2.97-1.79c-0.67-0.4-1.35-0.79-2.03-1.17
			c-0.12-0.07-0.28-0.07-0.42-0.1c0.08-0.09,0.15-0.19,0.23-0.28c0.57,0.09,1.14,0.18,1.71,0.26c1.25,0.18,2.49,0.36,3.74,0.52
			c1.22,0.16,2.44,0.3,3.66,0.42c0.67,0.07,1.34,0.09,2.01,0.12c1.89,0.08,3.79,0.14,5.68,0.22c0.96,0.04,1.91,0.09,2.87,0.1
			c3.42,0.04,6.84,0.09,10.26,0.1c1.56,0.01,3.12-0.05,4.68-0.1c1.34-0.05,2.68-0.11,4.02-0.22c2.25-0.19,4.51-0.39,6.75-0.64
			c1.53-0.17,3.04-0.43,4.57-0.64c0.37-0.05,0.75-0.05,1.18,0.01c-1.9,1.45-4.01,2.56-6.01,3.84c-1.99,1.28-4.06,2.44-6.09,3.66
			c-2.05,1.24-4.09,2.49-6.13,3.72c0.04,0.21,0.11,0.42,0.11,0.63c0.01,0.77-0.03,1.53,0.01,2.3c0.11,1.71-0.55,1.97-1.91,2.17
			c-2.15,0.33-4.32,0.54-6.49,0.42c-1.57-0.09-3.14-0.33-4.71-0.51c-0.27-0.03-0.57-0.02-0.82-0.13c-0.66-0.29-0.89-0.79-0.83-1.54
			C376.19,747.36,376.13,746.25,376.13,745.01z"/>
	</g>
</g>
<rect x="563.33" y="247.18" transform="matrix(4.490814e-11 -1 1 4.490814e-11 548.5922 1071.3021)" fill="none" stroke="#FF0000" stroke-width="1.4173" stroke-miterlimit="10" width="493.23" height="28.35"/>
<rect x="597.35" y="247.18" transform="matrix(4.488949e-11 -1 1 4.488949e-11 582.6079 1105.3179)" fill="none" stroke="#FF0000" stroke-width="1.4173" stroke-miterlimit="10" width="493.23" height="28.35"/>
<rect x="790.67" y="406.49" transform="matrix(4.489837e-11 -1 1 4.489837e-11 457.3166 1298.6406)" fill="none" stroke="#FF0000" stroke-width="1.4173" stroke-miterlimit="10" width="174.61" height="28.35"/>
<rect x="790.67" y="225.25" transform="matrix(4.489837e-11 -1 1 4.489837e-11 638.5509 1117.4063)" fill="none" stroke="#FF0000" stroke-width="1.4173" stroke-miterlimit="10" width="174.61" height="28.35"/>
<g>
	<g>
		<circle fill="none" stroke="#FF0000" stroke-width="1.4173" stroke-miterlimit="10" cx="345.24" cy="109.13" r="4.25"/>
		<circle fill="none" stroke="#FF0000" stroke-width="1.4173" stroke-miterlimit="10" cx="509.65" cy="109.13" r="4.25"/>
		<circle fill="none" stroke="#FF0000" stroke-width="1.4173" stroke-miterlimit="10" cx="345.24" cy="245.2" r="4.25"/>
		<circle fill="none" stroke="#FF0000" stroke-width="1.4173" stroke-miterlimit="10" cx="509.65" cy="245.2" r="4.25"/>
	</g>
	<g>
		<polygon fill="none" stroke="#FF0000" stroke-width="1.4173" stroke-miterlimit="10" points="268.74,14.74 268.74,85.61 
			277.25,85.61 277.25,269.86 268.74,269.86 268.74,340.73 452.99,340.73 452.99,349.23 594.73,349.23 594.73,340.73 778.98,340.73 
			778.98,269.86 770.47,269.86 770.47,85.61 778.98,85.61 778.98,14.74 		"/>
		<path fill="#FFFFFF" stroke="#FF0000" stroke-width="1.4173" stroke-miterlimit="10" d="M726.77,331.74h-28.35v-19.69
			c0-4.76,3.89-8.65,8.65-8.65h11.04c4.76,0,8.65,3.89,8.65,8.65V331.74z"/>
	</g>
</g>
<g>
</g>
<g>
</g>
<g>
</g>
<g>
</g>
<g>
</g>
<g>
</g>
</svg>
