<?xml version="1.0" encoding="UTF-8" standalone="no"?>
<!-- Created with Inkscape (http://www.inkscape.org/) -->

<svg
   width="594mm"
   height="420mm"
   viewBox="0 0 594 420"
   version="1.1"
   id="svg1"
   inkscape:version="1.3 (0e150ed, 2023-07-21)"
   sodipodi:docname="SVG_SERTISS copy.svg"
   xmlns:inkscape="http://www.inkscape.org/namespaces/inkscape"
   xmlns:sodipodi="http://sodipodi.sourceforge.net/DTD/sodipodi-0.dtd"
   xmlns="http://www.w3.org/2000/svg"
   xmlns:svg="http://www.w3.org/2000/svg">
  <sodipodi:namedview
     id="namedview1"
     pagecolor="#ffffff"
     bordercolor="#000000"
     borderopacity="0.25"
     inkscape:showpageshadow="2"
     inkscape:pageopacity="0.0"
     inkscape:pagecheckerboard="0"
     inkscape:deskcolor="#d1d1d1"
     inkscape:document-units="mm"
     inkscape:zoom="0.8646599"
     inkscape:cx="1201.6285"
     inkscape:cy="478.22271"
     inkscape:window-width="1712"
     inkscape:window-height="962"
     inkscape:window-x="0"
     inkscape:window-y="39"
     inkscape:window-maximized="0"
     inkscape:current-layer="layer1" />
  <defs
     id="defs1" />
  <g
     inkscape:label="Layer 1"
     inkscape:groupmode="layer"
     id="layer1">
    <rect
       style="fill:none;stroke:#ff0000;stroke-width:0.3;stroke-dasharray:none;stroke-opacity:1"
       id="rect1-0-0"
       width="154.72153"
       height="11.923247"
       x="236.30933"
       y="78.860352" />
    <rect
       style="fill:none;stroke:#ff0000;stroke-width:0.3;stroke-dasharray:none;stroke-opacity:1"
       id="rect1-0-0-6"
       width="154.72153"
       height="11.923247"
       x="236.14291"
       y="94.869263" />
    <path
       id="path36-8"
       style="fill:none;stroke:#ff0000;stroke-width:0.3"
       d="M 414.02554,74.95878 V 5.15 H 214.19847 v 69.95494 m -0.0191,12.47534 0.0191,17.39669 h 14.98874 l 3.8e-4,-29.84917 169.84868,3.5e-4 v 29.84882 h 14.98927 v -17.2896 m -201.92475,0.036 v 12.37401 H 210.15 V 74.96297 h 1.95079 m 0.006,5.2e-4 2.1188,-0.006 m 0.006,12.77207 h -2.27879 m 204.05481,-0.006 v 12.37401 h 1.95079 v -25.1346 h -1.95079 m -0.006,5.2e-4 -2.1188,-0.006 m -0.006,12.77207 h 2.27879" />
    <path
       id="path138-1"
       style="fill:none;stroke:#ff0000;stroke-width:0.3"
       d="m 303.14949,110.15 v 2.86442 h -87.17218 v 5.12579 h -2.8081 v 19.58433 h 2.8081 v 5.12579 h 87.17218 v 2.86442 h 19.57969 v -2.86442 h 87.17539 v -5.12476 h 2.75125 v -19.5864 h -2.75125 v -5.12475 H 322.72918 V 110.15 Z"
       sodipodi:nodetypes="ccccccccccccccccccccc" />
    <path
       id="path138-1-2"
       style="fill:none;stroke:#ff0000;stroke-width:0.3"
       d="m 303.13028,150.66528 v 2.86442 H 215.9581 v 5.12579 H 213.15 v 19.58433 h 2.8081 v 5.12579 h 87.17218 v 2.86442 h 19.57969 v -2.86442 h 87.17539 v -5.12476 h 2.75125 v -19.5864 h -2.75125 v -5.12475 h -87.17539 v -2.86442 z"
       sodipodi:nodetypes="ccccccccccccccccccccc" />
    <path
       id="path129-9"
       style="fill:none;stroke:#ff0000;stroke-width:0.3"
       d="m 307.10799,198.09732 h 3.05296 v -5.15059 H 269.9479 V 190.15 h -19.58485 v 2.79673 H 210.15 v 5.15162 h 2.99663 v 19.5802 H 210.15 v 5.15214 h 40.21305 v 2.79621 h 19.58485 v -2.79621 h 40.21305 v -5.15111 h -3.05296 z"
       sodipodi:nodetypes="ccccccccccccccccccccc" />
    <rect
       style="fill:none;fill-opacity:1;stroke:#ff0000;stroke-width:0.3;stroke-opacity:1"
       id="rect1"
       width="5.616786"
       height="16.646112"
       x="18.293076"
       y="44.826088" />
    <rect
       style="fill:none;fill-opacity:1;stroke:#ff0000;stroke-width:0.3;stroke-opacity:1"
       id="rect1-00"
       width="5.616786"
       height="16.646112"
       x="186.25749"
       y="44.826088" />
    <rect
       style="fill:none;fill-opacity:1;stroke:#ff0000;stroke-width:0.3;stroke-opacity:1;stroke-dasharray:none"
       id="rect1-00-2"
       width="10.900284"
       height="26.213568"
       x="202.43831"
       y="-273.26227"
       transform="rotate(90)" />
    <g
       id="g1"
       transform="translate(-1.1707017)">
      <rect
         style="fill:none;fill-opacity:1;stroke:#ff0000;stroke-width:0.3;stroke-opacity:1"
         id="rect1-00-0"
         width="5.616786"
         height="16.646112"
         x="116.29288"
         y="-239.38689"
         transform="rotate(90)" />
      <rect
         style="fill:none;fill-opacity:1;stroke:#ff0000;stroke-width:0.3;stroke-opacity:1"
         id="rect1-00-0-3"
         width="5.616786"
         height="16.646112"
         x="116.29288"
         y="-405.42566"
         transform="rotate(90)" />
    </g>
    <rect
       style="fill:none;fill-opacity:1;stroke:#ff0000;stroke-width:0.3;stroke-opacity:1;stroke-dasharray:none"
       id="rect1-00-5"
       width="5.616786"
       height="5.5685978"
       x="186.25749"
       y="29.961954" />
    <rect
       style="fill:none;fill-opacity:1;stroke:#ff0000;stroke-width:0.3;stroke-opacity:1;stroke-dasharray:none"
       id="rect1-00-5-7"
       width="5.616786"
       height="5.5685978"
       x="18.293076"
       y="29.961954" />
    <path
       id="path129-9-2"
       style="fill:none;stroke:#ff0000;stroke-width:0.3"
       d="m 412.10799,198.09732 h 3.05296 v -5.15059 H 374.9479 V 190.15 h -19.58485 v 2.79673 H 315.15 v 5.15162 h 2.99663 v 19.5802 H 315.15 v 5.15214 h 40.21305 v 2.79621 h 19.58485 v -2.79621 h 40.21305 v -5.15111 h -3.05296 z"
       sodipodi:nodetypes="ccccccccccccccccccccc" />
    <path
       id="path65"
       style="fill:none;stroke:#ff0000;stroke-width:0.293766"
       d="m 114.91124,110.14688 v 2.77658 H 95.209084 v -2.77658 H 5.146883 v 40.06061 h 2.70268 v 19.70629 h -2.70268 v 40.06009 h 90.062201 v -2.77658 h 19.702156 v 2.77658 h 90.0622 v -40.06009 h -2.70319 v -19.70629 h 2.70319 v -40.06061 z m -19.702156,2.77658 h 19.702156 z m 107.061166,37.28403 v 19.70629 z m -87.35901,56.9898 H 95.209084 Z M 7.849563,169.91378 v -19.70629 z" />
    <path
       style="fill:none;stroke:#ff0000;stroke-width:0.293766"
       d="M 114.91124,102.19626 H 95.209093 Z"
       id="path1" />
    <path
       style="fill:none;stroke:#ff0000;stroke-width:0.293766"
       d="m 5.146883,5.146883 v 40.05854 h 2.70268 v 19.70629 h -2.70268 v 40.062147 h 90.06221 v -2.7776 h 19.702147 v 2.7776 h 90.06221 V 64.911713 h -2.7032 v -19.70629 h 2.7032 V 5.146883 h -90.06221 v 2.77451 H 95.209093 v -2.77451 z"
       id="path110" />
    <path
       id="path3"
       style="display:inline;fill:none;stroke:#ff0000;stroke-width:0.293766"
       d="m 473.15225,59.742607 c 0.13443,-3e-5 0.26281,0.02708 0.37931,0.07648 0.11649,0.0493 0.22091,0.120703 0.30902,0.208773 0.0881,0.0881 0.15949,0.192555 0.20878,0.309025 0.0492,0.11649 0.077,0.244875 0.077,0.379305 1e-4,0.13443 -0.0272,0.262298 -0.0765,0.378788 -0.0493,0.11648 -0.12067,0.221442 -0.20877,0.309542 h -5.2e-4 c -0.0881,0.0881 -0.19204,0.159473 -0.30851,0.208773 -0.11647,0.0493 -0.24487,0.07648 -0.3793,0.07648 -0.13443,2e-5 -0.26229,-0.02708 -0.37879,-0.07648 -0.11635,-0.04914 -0.22149,-0.120842 -0.30954,-0.208773 h -5.2e-4 c -0.0881,-0.0881 -0.15948,-0.193072 -0.20877,-0.309542 -0.0494,-0.11646 -0.0765,-0.244358 -0.0765,-0.378788 -3e-5,-0.13443 0.0272,-0.262805 0.0765,-0.379305 0.0493,-0.1165 0.1207,-0.220915 0.20877,-0.309025 0.0881,-0.0881 0.19306,-0.159493 0.30954,-0.208773 0.11647,-0.0494 0.24436,-0.07648 0.37879,-0.07648 z m -3.0582,5.17e-4 c 0.13441,-3e-5 0.26229,0.02718 0.37878,0.07648 0.11649,0.0493 0.22143,0.120703 0.30955,0.208773 0.0881,0.0881 0.15947,0.192545 0.20877,0.309025 0.0494,0.11648 0.0765,0.244875 0.0765,0.379305 10e-5,0.13443 -0.0268,0.262298 -0.076,0.378788 -0.0493,0.11649 -0.12067,0.221443 -0.20877,0.309542 h -5.2e-4 c -0.088,0.088 -0.19271,0.159479 -0.30902,0.208773 h -5.2e-4 c -0.11647,0.0494 -0.24384,0.07648 -0.37827,0.07648 -0.13426,2e-5 -0.26242,-0.0273 -0.37879,-0.07648 h -5.2e-4 c -0.11635,-0.04914 -0.22096,-0.120326 -0.30902,-0.208256 h -5.2e-4 c -0.0881,-0.0881 -0.15948,-0.193072 -0.20877,-0.309542 -0.0494,-0.116459 -0.0765,-0.244362 -0.0765,-0.378788 -4e-5,-0.13443 0.0272,-0.262808 0.0765,-0.379305 0.0492,-0.1165 0.12069,-0.220926 0.20877,-0.309026 0.0881,-0.0881 0.19308,-0.160009 0.30954,-0.209289 0.11647,-0.0494 0.24436,-0.07648 0.37879,-0.07648 z m 6.1526,167.963356 h 5.1e-4 c 0.13424,5e-5 0.26246,0.0272 0.37879,0.0765 h 5.2e-4 c 0.11633,0.0492 0.221,0.12081 0.30901,0.20878 h 5.2e-4 c 0.0879,0.0879 0.15835,0.1923 0.20774,0.3085 l 5.2e-4,5.2e-4 c 0.0492,0.11647 0.0765,0.24437 0.0765,0.37879 1e-4,0.13425 -0.0273,0.26242 -0.0765,0.37879 v 5.1e-4 c -0.0492,0.11633 -0.12029,0.22154 -0.20826,0.30955 -0.0881,0.0881 -0.19308,0.15947 -0.30954,0.20877 -0.11647,0.0494 -0.24488,0.0765 -0.37931,0.0765 -0.13443,3e-5 -0.26227,-0.0272 -0.37878,-0.0765 -0.11649,-0.0492 -0.22143,-0.1207 -0.30955,-0.20877 -0.0881,-0.0881 -0.15947,-0.19307 -0.20877,-0.30955 -0.0494,-0.11646 -0.0769,-0.24435 -0.077,-0.37878 -4e-5,-0.13442 0.0272,-0.26282 0.0765,-0.37931 0.0492,-0.1165 0.12072,-0.22089 0.20878,-0.30902 h 5.1e-4 c 0.088,-0.088 0.1927,-0.15953 0.30903,-0.20878 h 5.2e-4 c 0.11635,-0.0493 0.24401,-0.0764 0.37827,-0.0765 z m -3.05822,5.2e-4 c 0.13443,-2e-5 0.26281,0.0271 0.3793,0.0765 0.11649,0.0492 0.22093,0.12069 0.30903,0.20877 0.0881,0.0881 0.1599,0.19256 0.2093,0.30903 0.0493,0.11647 0.0765,0.24488 0.0765,0.3793 0,0.13443 -0.0273,0.2623 -0.0765,0.37879 -0.0493,0.11649 -0.12068,0.22144 -0.20878,0.30954 -0.0881,0.0881 -0.19254,0.15948 -0.30902,0.20878 -0.11647,0.0494 -0.24488,0.0765 -0.37931,0.0765 -0.13443,3e-5 -0.26228,-0.0272 -0.37879,-0.0765 -0.11649,-0.0493 -0.22142,-0.12071 -0.30954,-0.20878 -0.0881,-0.0881 -0.15999,-0.19306 -0.20929,-0.30954 -0.0493,-0.11646 -0.0765,-0.24436 -0.0765,-0.37879 -3e-5,-0.13442 0.0272,-0.26281 0.0765,-0.3793 0.0492,-0.1165 0.1207,-0.2209 0.20878,-0.30903 0.0881,-0.0881 0.19307,-0.15947 0.30954,-0.20877 0.11647,-0.0494 0.24436,-0.0764 0.37878,-0.0765 z m -3.0582,5.2e-4 c 0.13439,-2e-5 0.26229,0.0272 0.37878,0.0765 0.11649,0.0492 0.22143,0.12069 0.30955,0.20877 0.0881,0.0881 0.15949,0.19255 0.20877,0.30902 0.0494,0.11647 0.0765,0.24489 0.0765,0.37931 10e-5,0.13443 -0.0268,0.2623 -0.076,0.37879 -0.0493,0.11649 -0.12067,0.22144 -0.20877,0.30954 h -5.2e-4 c -0.0881,0.0881 -0.19256,0.15948 -0.30903,0.20877 -0.11647,0.0494 -0.24435,0.0765 -0.37878,0.0765 -0.13444,3e-5 -0.26232,-0.0272 -0.37879,-0.0765 -0.11635,-0.0491 -0.22149,-0.12032 -0.30955,-0.20825 h -5.1e-4 c -0.0881,-0.0881 -0.1595,-0.19308 -0.20878,-0.30955 -0.0494,-0.11647 -0.0765,-0.24435 -0.0765,-0.37878 -2e-5,-0.13442 0.0272,-0.26282 0.0765,-0.37931 0.0492,-0.11649 0.12074,-0.2209 0.20878,-0.30902 0.0881,-0.0881 0.19308,-0.15999 0.30955,-0.20929 0.11646,-0.0494 0.24435,-0.0765 0.37878,-0.0765 z m 54.79131,16.91595 h 10.0647 l 0.16197,39.65247 h -39.80997 l 0.005,-39.75981 M 524.83383,44.799348 h 9.82331 l 0.16197,-39.652465 h -39.80997 l 0.005,39.804854 M 476.21047,59.74209 c -0.13443,0 -0.2623,0.02708 -0.37878,0.07648 -0.11647,0.04928 -0.22145,0.120673 -0.30955,0.208773 -0.0881,0.0881 -0.15898,0.192525 -0.20826,0.309025 -0.0492,0.1165 -0.0766,0.244875 -0.0765,0.379305 3e-5,0.13443 0.0272,0.262329 0.0765,0.378789 0.0493,0.116466 0.12068,0.221441 0.20878,0.309541 0.0881,0.08807 0.19305,0.159573 0.30954,0.208773 0.1165,0.0493 0.24436,0.0765 0.37879,0.07648 0.13443,0 0.26283,-0.02708 0.3793,-0.07648 0.11647,-0.04929 0.22144,-0.120673 0.30955,-0.208773 0.0881,-0.08812 0.15904,-0.193065 0.20825,-0.309541 v -5.17e-4 c 0.009,-0.0234 0.008,-0.05171 0.0155,-0.07597 0.032,-0.09648 0.0605,-0.195031 0.0605,-0.302307 -1e-4,-0.13443 -0.0271,-0.262815 -0.0765,-0.379305 -0.0493,-0.11647 -0.12016,-0.220925 -0.20826,-0.309025 -0.0881,-0.08807 -0.19305,-0.159473 -0.30954,-0.208773 -0.11649,-0.0494 -0.24488,-0.0765 -0.37931,-0.07648 z m 0.68885,0.285254 c 0.0881,0.0881 0.15895,0.192555 0.20826,0.309025 0.0494,0.11649 0.0764,0.244875 0.0765,0.379305 0,0.107276 -0.0285,0.205828 -0.0605,0.302307 0.0322,-0.09661 0.0611,-0.195367 0.061,-0.302823 0,-0.13443 -0.0272,-0.262819 -0.0765,-0.379305 -0.0494,-0.11647 -0.12068,-0.220429 -0.20878,-0.308509 z m -1.58544,1.067119 c -0.0493,-0.11646 -0.0764,-0.244359 -0.0765,-0.378789 -9e-5,-0.13443 0.0273,-0.262805 0.0765,-0.379305 0.0493,-0.1165 0.12016,-0.220925 0.20826,-0.309025 -0.0881,0.08811 -0.15957,0.192526 -0.20878,0.309025 -0.0493,0.1165 -0.0765,0.244875 -0.0765,0.379305 1e-4,0.13443 0.0276,0.262329 0.077,0.378789 z m -2.16163,-1.351856 c -0.13443,0 -0.26232,0.02708 -0.37878,0.07648 -0.11649,0.04928 -0.22144,0.120673 -0.30955,0.208773 -0.0881,0.08811 -0.15947,0.192525 -0.20877,0.309025 -0.0492,0.1165 -0.0761,0.244875 -0.076,0.379305 3e-5,0.13443 0.0273,0.262328 0.0765,0.378788 0.0494,0.11647 0.12064,0.221452 0.20877,0.309542 0.088,0.08793 0.19319,0.159633 0.30954,0.208773 0.1165,0.0494 0.24436,0.0765 0.37879,0.07648 0.13443,0 0.26283,-0.02718 0.3793,-0.07648 0.11647,-0.0493 0.22041,-0.120673 0.30851,-0.208773 0.0881,-0.08813 0.15958,-0.193062 0.20878,-0.309542 0.0493,-0.11649 0.0765,-0.244358 0.0765,-0.378788 0,-0.13443 -0.0271,-0.262815 -0.0765,-0.379305 -0.0493,-0.11647 -0.12068,-0.220925 -0.20878,-0.309025 -0.0881,-0.08807 -0.19252,-0.159473 -0.30901,-0.208773 -0.1165,-0.0494 -0.24489,-0.07651 -0.37931,-0.07648 z m 0.89711,0.594279 c 0.0494,0.11649 0.0765,0.244875 0.0765,0.379305 0,0.134431 -0.0272,0.262299 -0.0765,0.378788 -0.0492,0.116481 -0.12068,0.221413 -0.20878,0.309543 h 5.2e-4 c 0.0881,-0.0881 0.15947,-0.193062 0.20878,-0.309543 0.0493,-0.116489 0.0766,-0.244357 0.0765,-0.378788 0,-0.13443 -0.0278,-0.262815 -0.077,-0.379305 z m -1.58491,1.067636 c -0.0881,-0.08809 -0.15937,-0.193073 -0.20877,-0.309543 -0.0492,-0.116459 -0.0765,-0.244357 -0.0765,-0.378788 -10e-5,-0.13443 0.0268,-0.262805 0.076,-0.379305 -0.0493,0.1165 -0.0765,0.244875 -0.0765,0.379305 0,0.134431 0.0271,0.262328 0.0765,0.378788 0.0493,0.11647 0.12067,0.221443 0.20877,0.309543 z m -2.3704,-1.661398 c -0.13443,0 -0.26232,0.02708 -0.37879,0.07648 -0.11646,0.04928 -0.22144,0.12119 -0.30954,0.209289 -0.0881,0.0881 -0.15957,0.192526 -0.20878,0.309026 -0.0493,0.116496 -0.0761,0.244875 -0.076,0.379305 2e-5,0.134426 0.0273,0.262328 0.0765,0.378788 0.0494,0.11647 0.12066,0.221452 0.20877,0.309542 0.0881,0.08793 0.19268,0.159116 0.30902,0.208256 h 5.2e-4 c 0.11637,0.04918 0.24453,0.0765 0.37879,0.07648 0.13443,0 0.2618,-0.02708 0.37827,-0.07648 h 5.2e-4 c 0.11631,-0.04929 0.22102,-0.120773 0.30902,-0.208773 0.0881,-0.08812 0.15957,-0.193052 0.20877,-0.309542 0.0493,-0.11649 0.0765,-0.244358 0.0765,-0.378788 0,-0.13443 -0.0271,-0.262825 -0.0765,-0.379305 -0.0493,-0.11648 -0.12067,-0.220925 -0.20877,-0.309025 -0.0881,-0.08807 -0.19305,-0.159473 -0.30954,-0.208773 -0.11649,-0.0493 -0.24437,-0.07651 -0.37879,-0.07648 z m 0.97359,0.973584 c 0,0.13443 -0.0272,0.262298 -0.0765,0.378788 -0.0492,0.11649 -0.12068,0.221422 -0.20878,0.309542 h 5.2e-4 c 0.0881,-0.0881 0.15947,-0.193052 0.20877,-0.309542 0.0492,-0.11649 0.0761,-0.244358 0.076,-0.378788 z m -1.6614,0.688847 c -0.0881,-0.08809 -0.15938,-0.193072 -0.20878,-0.309542 -0.0492,-0.116459 -0.0765,-0.244362 -0.0765,-0.378788 -1e-4,-0.13443 0.0267,-0.262809 0.076,-0.379305 -0.0493,0.116496 -0.0765,0.244875 -0.0765,0.379305 0,0.134426 0.0271,0.262328 0.0765,0.378788 0.0493,0.11647 0.12068,0.221442 0.20878,0.309542 z m 6.84041,166.300955 c -0.13426,1e-4 -0.26192,0.0272 -0.37827,0.0765 h -5.2e-4 c -0.11634,0.0493 -0.22103,0.12078 -0.30903,0.20878 -0.0881,0.0881 -0.15949,0.19252 -0.20877,0.30902 -0.0492,0.11649 -0.0766,0.24489 -0.0765,0.37931 2e-5,0.13443 0.0272,0.26232 0.0765,0.37878 0.0493,0.11648 0.12067,0.22145 0.20877,0.30955 0.0881,0.0881 0.19306,0.15957 0.30955,0.20877 0.1165,0.0493 0.24435,0.0765 0.37878,0.0765 0.13443,0 0.26284,-0.0271 0.37931,-0.0765 0.11646,-0.0493 0.22143,-0.12067 0.30954,-0.20877 0.088,-0.088 0.15906,-0.19322 0.20826,-0.30955 v -5.1e-4 c 0.0493,-0.11649 0.076,-0.24436 0.076,-0.37879 0,-0.13442 -0.0271,-0.26284 -0.0765,-0.37931 -0.0493,-0.11647 -0.12016,-0.2204 -0.20826,-0.3085 -0.088,-0.088 -0.19269,-0.15958 -0.30902,-0.20878 h -5.2e-4 c -0.11633,-0.0493 -0.24455,-0.0764 -0.37879,-0.0765 z m 0.89709,0.59376 c 0.0494,0.11647 0.0765,0.24489 0.0765,0.37931 0,0.13443 -0.0267,0.2623 -0.076,0.37879 0.0492,-0.11637 0.0766,-0.24454 0.0765,-0.37879 0,-0.13442 -0.0273,-0.26232 -0.0765,-0.37879 z m -1.79368,0.75861 c -0.0493,-0.11646 -0.0765,-0.24435 -0.0765,-0.37878 -10e-5,-0.13442 0.0273,-0.26282 0.0765,-0.37931 0.0493,-0.1165 0.12067,-0.22092 0.20877,-0.30902 h -5.1e-4 c -0.0881,0.0881 -0.15958,0.19252 -0.20878,0.30902 -0.0493,0.11649 -0.0765,0.24489 -0.0765,0.37931 9e-5,0.13443 0.0276,0.26232 0.077,0.37878 z m -2.16163,-1.35185 c -0.13443,1e-4 -0.26231,0.0271 -0.37878,0.0765 -0.11647,0.0493 -0.22144,0.12067 -0.30955,0.20877 -0.0881,0.0881 -0.15899,0.19253 -0.20826,0.30903 -0.0492,0.11649 -0.0766,0.24488 -0.0765,0.3793 4e-5,0.13443 0.0273,0.26233 0.0765,0.37879 0.0494,0.11648 0.12065,0.22145 0.20878,0.30954 0.0881,0.0881 0.19305,0.15948 0.30954,0.20878 0.11651,0.0493 0.24435,0.0765 0.37879,0.0765 0.13443,0 0.26283,-0.0271 0.3793,-0.0765 0.11649,-0.0493 0.22092,-0.12068 0.30902,-0.20878 0.0881,-0.0881 0.15906,-0.19305 0.20826,-0.30954 0.0494,-0.11649 0.0765,-0.24436 0.0765,-0.37879 -1e-4,-0.13442 -0.0271,-0.26283 -0.0765,-0.3793 -0.0493,-0.11647 -0.12067,-0.22093 -0.20877,-0.30903 -0.0881,-0.0881 -0.19254,-0.15957 -0.30903,-0.20877 -0.11649,-0.0494 -0.24487,-0.0765 -0.3793,-0.0765 z m 0.68833,0.28525 c 0.0881,0.0881 0.15947,0.19256 0.20878,0.30903 0.0494,0.11647 0.0764,0.24488 0.0765,0.3793 0,0.13443 -0.0271,0.2623 -0.0765,0.37879 -0.0492,0.11649 -0.12016,0.22144 -0.20826,0.30954 0.0881,-0.0881 0.15947,-0.19305 0.20878,-0.30954 0.0492,-0.11649 0.0765,-0.24436 0.0765,-0.37879 0,-0.13442 -0.0272,-0.26283 -0.0765,-0.3793 -0.0494,-0.11647 -0.1212,-0.22093 -0.2093,-0.30903 z m -1.37614,1.37666 c -0.0881,-0.0881 -0.15938,-0.19306 -0.20878,-0.30954 -0.0492,-0.11646 -0.0764,-0.24436 -0.0765,-0.37879 -9e-5,-0.13442 0.0273,-0.26281 0.0765,-0.3793 0.0493,-0.1165 0.12016,-0.22093 0.20826,-0.30903 -0.0881,0.0881 -0.15958,0.19253 -0.20878,0.30903 -0.0493,0.11649 -0.0765,0.24488 -0.0765,0.3793 0,0.13443 0.0272,0.26233 0.0765,0.37879 0.0493,0.11648 0.1212,0.22144 0.2093,0.30954 z m -2.37039,-1.66139 c -0.13443,0 -0.26232,0.0271 -0.37879,0.0765 -0.11647,0.0493 -0.22145,0.12119 -0.30955,0.20929 -0.088,0.0881 -0.15957,0.19253 -0.20877,0.30902 -0.0492,0.11649 -0.0761,0.24489 -0.076,0.37931 3e-5,0.13443 0.0273,0.26231 0.0765,0.37878 0.0494,0.11647 0.12065,0.22146 0.20877,0.30955 0.0881,0.0879 0.19319,0.15915 0.30954,0.20825 0.11648,0.0493 0.24435,0.0765 0.37879,0.0765 0.13443,0 0.26232,-0.0271 0.37879,-0.0765 0.11647,-0.0493 0.22093,-0.12067 0.30903,-0.20877 0.0881,-0.0881 0.15956,-0.19305 0.20877,-0.30954 0.0493,-0.11649 0.0765,-0.24436 0.0765,-0.37879 0,-0.13442 -0.0271,-0.26284 -0.0765,-0.37931 -0.0493,-0.11647 -0.12067,-0.22092 -0.20877,-0.30902 -0.0881,-0.0881 -0.19306,-0.15957 -0.30955,-0.20877 -0.11649,-0.0493 -0.24439,-0.0765 -0.37878,-0.0765 z m 0.97357,0.97358 c 0,0.13443 -0.0272,0.2623 -0.0765,0.37879 -0.0492,0.11649 -0.12067,0.22144 -0.20877,0.30954 h 5.1e-4 c 0.0881,-0.0881 0.15947,-0.19305 0.20877,-0.30954 0.0492,-0.11649 0.0761,-0.24436 0.076,-0.37879 z m -1.66139,0.68885 c -0.0881,-0.0881 -0.15937,-0.19308 -0.20877,-0.30955 -0.0492,-0.11647 -0.0765,-0.24435 -0.0765,-0.37878 -1e-4,-0.13442 0.0268,-0.26282 0.076,-0.37931 -0.0493,0.11649 -0.0765,0.24489 -0.0765,0.37931 0,0.13443 0.0271,0.26231 0.0765,0.37878 0.0493,0.11647 0.12068,0.22145 0.20877,0.30955 z m 25.42701,-184.566253 -9.95767,0.0023 9.9e-4,2.703194 -19.7063,0.0041 -9.9e-4,-2.703194 -40.05854,0.0088 0.0196,90.062193 2.77451,-0.001 0.004,19.70215 -2.7745,0.001 0.0196,90.0622 40.05854,-0.009 -10e-4,-2.70216 19.70629,-0.004 10e-4,2.70268 10.53562,0.0311 m 29.56991,0.0807 -0.063,-90.18304 h -2.77761 l -0.004,-19.70215 h 2.77761 l -0.0196,-90.060272 M 476.21047,59.74209 c 0.13443,-2e-5 0.26281,0.02708 0.3793,0.07648 0.11649,0.0493 0.22143,0.120703 0.30955,0.208773 0.0881,0.08808 0.15937,0.192039 0.20877,0.308509 0.0493,0.116486 0.0765,0.244875 0.0765,0.379305 8e-5,0.107456 -0.0288,0.206208 -0.061,0.302823 -0.008,0.02426 -0.006,0.05257 -0.0155,0.07597 v 5.17e-4 c -0.0492,0.116476 -0.12019,0.221421 -0.20825,0.309541 -0.0881,0.0881 -0.19308,0.159483 -0.30954,0.208773 -0.11648,0.0494 -0.24488,0.07648 -0.37931,0.07648 -0.13443,2e-5 -0.26229,-0.02718 -0.37879,-0.07648 -0.11649,-0.0492 -0.22141,-0.120703 -0.30954,-0.208773 -0.0881,-0.0881 -0.15948,-0.193075 -0.20877,-0.309541 -0.0494,-0.11646 -0.0769,-0.244359 -0.077,-0.378789 -3e-5,-0.13443 0.0272,-0.262805 0.0765,-0.379305 0.0492,-0.1165 0.12069,-0.220915 0.20877,-0.309025 0.0881,-0.0881 0.19308,-0.159493 0.30955,-0.208773 0.11648,-0.0494 0.24435,-0.07648 0.37878,-0.07648 z" />
  </g>
</svg>
